<svg xmlns="http://www.w3.org/2000/svg" id="Group_17214" width="96.168" height="95.933" viewBox="0 0 96.168 95.933">
    <defs>
        <style>
            .cls-1{fill:#5e675d}
        </style>
    </defs>
    <g id="Group_17211">
        <g id="Group_17210">
            <path id="Path_885" d="M1179.591 764.623l-.213-.719a3.514 3.514 0 0 0 2.911.295c1.437-.426 2.14-1.374 1.833-2.411-.363-1.224-1.426-1.343-2.742-1.532l-.813-.106c-1.459-.233-2.458-.574-2.881-2-.49-1.65.635-2.838 2.324-3.339a5.546 5.546 0 0 1 2.28-.17l.213.718a2.964 2.964 0 0 0-2.452-.358c-1.091.324-1.928 1.064-1.589 2.209.3 1.011 1.04 1.211 2.329 1.408l.818.119c1.669.258 2.834.477 3.28 1.98.533 1.8-.7 3.116-2.559 3.669a7.083 7.083 0 0 1-2.739.237z" class="cls-1" transform="translate(-1145.287 -752.884)"/>
            <path id="Path_886" d="M1195.368 756.646c-.184-2.922 1.671-5.041 4.857-5.242a6.005 6.005 0 0 1 2.453.3l.043.693a3.007 3.007 0 0 0-2.442-.806c-2.23.14-3.477 2.207-3.3 4.95.178 2.826 1.666 4.6 3.979 4.45a4.108 4.108 0 0 0 2.258-.8l.016.25a4.753 4.753 0 0 1-2.412.778c-3.162.206-5.263-1.567-5.452-4.573z" class="cls-1" transform="translate(-1153.581 -751.39)"/>
            <path id="Path_887" d="M1219.994 762.461l-1.575-4.982-.192-.034-1.473-.268-.827 4.545-1.474-.268 1.686-9.267 3.412.621c2.306.419 3.073 1.32 2.792 2.862-.276 1.515-1.661 2.08-3.717 1.833l.064.195 1.419.258 1.441 4.788zm.884-7.03a1.849 1.849 0 0 0-1.69-2.493l-1.61-.293-.79 4.34 1.46.266a1.982 1.982 0 0 0 2.63-1.82z" class="cls-1" transform="translate(-1162.487 -751.761)"/>
            <path id="Path_888" d="M1233.868 762.21a4.85 4.85 0 1 1 2.208 6.524 4.681 4.681 0 0 1-2.208-6.524zm7.258 3.51c1.281-2.648 1.049-4.749-.85-5.667-1.937-.937-3.708.241-4.971 2.852-1.281 2.648-1.067 4.724.856 5.654s3.684-.19 4.965-2.838z" class="cls-1" transform="translate(-1171.28 -755.101)"/>
            <path id="Path_889" d="M1254.978 780.3l-.383.458-4.044-3.382 6.043-7.227 1.15.962-5.919 7.077.043.036a10.555 10.555 0 0 0 3.11 2.076z" class="cls-1" transform="translate(-1179.322 -760.14)"/>
            <path id="Path_890" d="M1264.583 791.523l-.462.377-3.329-4.087 7.3-5.95.946 1.162-7.153 5.826.035.043a10.583 10.583 0 0 0 2.663 2.629z" class="cls-1" transform="translate(-1184.097 -765.601)"/>
            <path id="Path_891" d="M1281.469 804.063l1.129 3.117c1.091 3.013.028 5.376-2.711 6.367s-5.055-.147-6.145-3.16l-1.129-3.118zm-7.546 6.258c.765 2.113 2.786 2.68 5.421 1.726s3.832-2.7 3.071-4.8l-.619-1.709-8.492 3.075z" class="cls-1" transform="translate(-1189.61 -775.954)"/>
            <path id="Path_892" d="M1283.494 827.812a4.849 4.849 0 1 1-4.637 5.091 4.68 4.68 0 0 1 4.637-5.091zm.444 8.047c2.937-.162 4.661-1.383 4.545-3.488-.118-2.147-2.006-3.126-4.9-2.966-2.937.162-4.649 1.354-4.531 3.487s1.948 3.129 4.886 2.967z" class="cls-1" transform="translate(-1192.518 -787.026)"/>
            <path id="Path_893" d="M1283.062 866.233c-1.88-1.374-3.908-2.73-6.673-4.753l-1.732-1.231.045-.161 8.508-.7-6.945-4.915.045-.16 10.347-1-.4 1.444-8.068.78-.015.054 6.814 4.763-.044.161-8.487.677-.019.067a51.541 51.541 0 0 0 6.813 4.3z" class="cls-1" transform="translate(-1190.564 -798.924)"/>
            <path id="Path_894" d="M1273.6 880.092l.039-.058-3.235-2.152c-1.2-.78-2.48-1.483-3.235-1.9l.346-.52c.678.535 1.834 1.454 3.016 2.257l4.946 3.29-.092.138-10.195 1.119-.031.046 3.2 2.129c1.2.78 2.48 1.483 3.235 1.9l-.346.52c-.677-.535-1.814-1.457-3-2.249l-4.957-3.3.092-.139z" class="cls-1" transform="translate(-1185.261 -809.25)"/>
            <path id="Path_895" d="M1255.327 900.378l-4.02 3.1-.119-.154 4.021-3.1z" class="cls-1" transform="translate(-1179.619 -820.8)"/>
            <path id="Path_896" d="M1233.4 907.556l.261.7a3.51 3.51 0 0 0-2.923-.1c-1.4.522-2.042 1.515-1.665 2.529.445 1.2 1.514 1.243 2.838 1.342l.818.051c1.471.134 2.49.406 3.008 1.8.6 1.613-.441 2.874-2.092 3.487a5.555 5.555 0 0 1-2.263.324l-.261-.7a2.968 2.968 0 0 0 2.47.192c1.066-.4 1.851-1.192 1.435-2.311-.368-.988-1.12-1.138-2.418-1.247l-.823-.065c-1.682-.144-2.859-.284-3.405-1.753-.653-1.756.484-3.156 2.3-3.833a7.082 7.082 0 0 1 2.72-.416z" class="cls-1" transform="translate(-1168.894 -824.214)"/>
            <path id="Path_897" d="M1217.69 916.909c.378 2.9-1.332 5.141-4.5 5.554a6 6 0 0 1-2.467-.141l-.09-.688a3 3 0 0 0 2.491.641c2.216-.288 3.322-2.433 2.967-5.158-.365-2.807-1.968-4.474-4.266-4.175a4.1 4.1 0 0 0-2.2.945l-.032-.248a4.754 4.754 0 0 1 2.355-.936c3.14-.409 5.352 1.22 5.742 4.206z" class="cls-1" transform="translate(-1160.222 -826.59)"/>
            <path id="Path_898" d="M1193.032 912.264l1.905 4.866.194.022 1.489.169.52-4.591 1.489.169-1.061 9.361-3.447-.391c-2.329-.264-3.155-1.112-2.978-2.67.173-1.53 1.519-2.188 3.587-2.078l-.077-.191-1.433-.163-1.759-4.681zm-.411 7.075c-.142 1.254.225 2.2 1.853 2.374l1.627.185.5-4.384-1.476-.168a1.982 1.982 0 0 0-2.505 1.993z" class="cls-1" transform="translate(-1151.605 -826.332)"/>
            <path id="Path_899" d="M1177.424 913.864a4.849 4.849 0 1 1-2.641-6.359 4.68 4.68 0 0 1 2.641 6.359zm-7.475-3.013c-1.1 2.727-.727 4.807 1.229 5.6 1.994.8 3.682-.49 4.766-3.178 1.1-2.727.748-4.784-1.234-5.583s-3.661.434-4.76 3.161z" class="cls-1" transform="translate(-1140.836 -824.009)"/>
            <path id="Path_900" d="M1157.708 896.6l.351-.482 4.261 3.1-5.546 7.613-1.211-.882 5.432-7.456-.045-.032a10.539 10.539 0 0 0-3.242-1.861z" class="cls-1" transform="translate(-1135.024 -818.884)"/>
            <path id="Path_901" d="M1146.438 886.493l.436-.407 3.593 3.858-6.895 6.419-1.021-1.1 6.752-6.287-.038-.041a10.557 10.557 0 0 0-2.827-2.442z" class="cls-1" transform="translate(-1128.956 -814.206)"/>
            <path id="Path_902" d="M1126.6 875.381l-1.335-3.036c-1.29-2.934-.387-5.363 2.28-6.536s5.055-.192 6.346 2.743l1.335 3.036zm7.112-6.751c-.906-2.058-2.959-2.488-5.525-1.36s-3.644 2.952-2.745 5l.732 1.664 8.27-3.636z" class="cls-1" transform="translate(-1120.621 -804.526)"/>
            <path id="Path_903" d="M1123.509 851.93a4.849 4.849 0 1 1 4.285-5.391 4.681 4.681 0 0 1-4.285 5.391zm-.984-8c-2.918.359-4.558 1.693-4.3 3.785.262 2.135 2.212 2.985 5.09 2.631 2.918-.359 4.547-1.663 4.287-3.784s-2.157-2.991-5.077-2.632z" class="cls-1" transform="translate(-1117.501 -793.768)"/>
            <path id="Path_904" d="M1119.789 810.985c1.968 1.243 4.083 2.46 6.978 4.291l1.811 1.111-.034.163-8.44 1.274 7.26 4.434-.034.163-10.256 1.692.3-1.468 8-1.323.011-.054-7.12-4.292.034-.163 8.421-1.249.014-.068a51.464 51.464 0 0 0-7.087-3.832z" class="cls-1" transform="translate(-1117.075 -779.183)"/>
            <path id="Path_905" d="M1127.805 797.81l-.035.06 3.372 1.931c1.248.7 2.574 1.314 3.355 1.681l-.31.542c-.712-.488-1.927-1.327-3.161-2.05l-5.154-2.952.082-.145 10.1-1.8.028-.048-3.336-1.911c-1.247-.7-2.574-1.313-3.355-1.681l.311-.542c.712.488 1.907 1.333 3.148 2.043l5.167 2.958-.083.145z" class="cls-1" transform="translate(-1121.178 -769.815)"/>
            <path id="Path_906" d="M1152.036 782.977l3.806-3.362.129.146-3.806 3.361z" class="cls-1" transform="translate(-1133.379 -764.553)"/>
        </g>
    </g>
</svg>
