<?xml version="1.0" encoding="utf-8"?>
<!-- Generator: Adobe Illustrator 23.0.1, SVG Export Plug-In . SVG Version: 6.00 Build 0)  -->
<svg version="1.1" id="Group_1" xmlns="http://www.w3.org/2000/svg" xmlns:xlink="http://www.w3.org/1999/xlink" x="0px" y="0px"
	 viewBox="0 0 117.5 35" style="enable-background:new 0 0 117.5 35;" xml:space="preserve">
<g>
	<g>
		<g>
			<path d="M25.7,9.8c-0.2-0.1-2-1.2-2-1.2s1.3-3.7,1.2-4.2c-0.1-0.5-0.7-0.7-0.7-0.7l-2.2,4l-2.3-1V5.2L19,4.6c0,0-0.2,1.7-0.5,2.1
				c-0.3,0.4-1.4,1.2-1.4,1.2l0.6,0.6l1.5-0.8L21.1,9l-2.4,3.9c0,0,0.5,0.6,0.9,0.3c0.5-0.3,2.7-3.2,2.7-3.2s2.2,1.2,2.5,1.3
				c0.2,0.1,0.8,0.4,1.1-0.3C26.4,10.3,26,9.9,25.7,9.8z"/>
			<path d="M22.2,13.8c-0.3-0.4-0.7-0.8-1.1-1.1l-0.6,0.6c0.4,0.3,0.7,0.6,1,1c-0.6,0.4-1.2,0.7-1.9,0.9c-0.5-1.6-1.3-2.9-2.2-3.7
				c0.4,0.1,0.7,0.3,1,0.4l0.4-0.7c-1.3-0.6-2.8-1-4.3-1l0,0l0,0l0,0c-3,0-5.8,1.4-7.6,3.6c-0.2,0.2-0.3,0.4-0.5,0.6
				C5.3,16,4.6,18,4.6,20.1s0.7,4.1,1.8,5.7c0.2,0.2,0.3,0.4,0.5,0.6c1.8,2.2,4.5,3.6,7.6,3.6l0,0l0,0l0,0c3.1,0,5.8-1.4,7.6-3.6
				c0.2-0.2,0.3-0.4,0.5-0.6c1.1-1.6,1.8-3.6,1.8-5.7s-0.7-4.1-1.8-5.7C22.5,14.3,22.4,14,22.2,13.8z M11.7,11.6
				c-0.9,0.9-1.7,2.2-2.2,3.7c-0.7-0.3-1.3-0.6-1.9-0.9C8.7,13.1,10.1,12.1,11.7,11.6z M7.1,15c0.6,0.4,1.3,0.8,2.1,1.1
				c-0.3,1.2-0.5,2.6-0.5,4.1H5.5C5.5,18.2,6.1,16.4,7.1,15z M5.5,20.9h3.2c0.1,1.2,0.2,2.4,0.5,3.4c-0.8,0.3-1.5,0.7-2.1,1.1
				C6.2,24.1,5.6,22.6,5.5,20.9z M7.6,26c0.5-0.4,1.2-0.7,1.9-0.9c0.5,1.5,1.3,2.8,2.2,3.7C10.1,28.3,8.7,27.3,7.6,26z M14.2,29.3
				c-1.7-0.2-3.1-1.9-3.9-4.4c1.2-0.4,2.5-0.6,3.9-0.6C14.2,24.3,14.2,29.3,14.2,29.3z M14.2,23.4c-1.5,0-2.9,0.3-4.2,0.7
				c-0.3-1-0.4-2-0.5-3.2h4.6L14.2,23.4L14.2,23.4z M14.2,20.1H9.5c0-1.4,0.2-2.7,0.5-3.8c1.3,0.4,2.7,0.6,4.2,0.7V20.1L14.2,20.1z
				 M14.2,16.1c-1.4,0-2.8-0.2-3.9-0.6c0.8-2.5,2.3-4.2,3.9-4.4C14.2,11.1,14.2,16.1,14.2,16.1z M15,11.1c1.7,0.3,3.1,2,3.9,4.4
				c-1.2,0.3-2.5,0.6-3.9,0.6V11.1z M15,16.9c1.5,0,2.9-0.3,4.1-0.6c0.3,1.2,0.5,2.4,0.5,3.8H15V16.9z M15,20.9h4.6
				c0,1.1-0.2,2.2-0.5,3.2c-1.2-0.4-2.6-0.6-4.1-0.6V20.9z M15,29.3v-5c1.4,0,2.7,0.2,3.9,0.6C18.1,27.3,16.7,29,15,29.3z
				 M17.4,28.8c0.9-0.9,1.7-2.2,2.2-3.7c0.7,0.3,1.4,0.6,1.9,0.9C20.5,27.3,19,28.3,17.4,28.8z M22,25.4c-0.6-0.4-1.4-0.8-2.2-1.1
				c0.3-1.1,0.5-2.2,0.5-3.4h3.3C23.5,22.6,22.9,24.1,22,25.4z M20.4,20.1c0-1.5-0.2-2.8-0.5-4.1c0.8-0.3,1.5-0.7,2.2-1.1
				c1,1.5,1.6,3.2,1.7,5.1C23.7,20.1,20.4,20.1,20.4,20.1z"/>
			<path d="M1.7,20c0-7.3,5.9-13.2,13.2-13.2c0.8,0,1.5,0.1,2.2,0.2l0.8-0.5l0.3-0.9c-0.9-0.2-2.3-0.4-3.3-0.4
				C6.7,5.2,0.1,11.8,0.1,20c0,0.9,0,1.7,0.1,2.4c0.4,3.2,4.5,8.8,7.7,8.8C4.4,28.6,1.7,24.7,1.7,20z"/>
		</g>
	</g>
	<g>
		<path d="M29.1,13h2.1c1.3,0,2.3,0.1,2.7,0.2c0.5,0.1,0.8,0.3,1.1,0.6c0.2,0.3,0.4,0.6,0.5,0.9c0.1,0.3,0.1,1,0.1,2v3.8
			c0,1,0,1.6-0.1,1.9S35.3,23,35,23.2c-0.2,0.2-0.5,0.3-0.8,0.4s-0.8,0.1-1.5,0.1h-3.5V13H29.1z M31.9,14.8v7.1
			c0.4,0,0.7-0.1,0.7-0.2c0.1-0.2,0.1-0.6,0.1-1.3v-4.2c0-0.5,0-0.8,0-0.9c0-0.1-0.1-0.2-0.2-0.3C32.4,14.8,32.2,14.8,31.9,14.8z"/>
		<path d="M38.3,13H43v2.1h-1.9v2h1.7v2h-1.7v2.4h2.1v2.1h-4.8L38.3,13L38.3,13z"/>
		<path d="M52.3,16.2h-2.6v-0.8c0-0.4,0-0.6-0.1-0.7c-0.1-0.1-0.2-0.2-0.3-0.2c-0.2,0-0.3,0.1-0.4,0.2c-0.1,0.1-0.1,0.3-0.1,0.6
			c0,0.4,0,0.6,0.1,0.8c0.1,0.2,0.4,0.4,0.8,0.7c1.2,0.7,2,1.3,2.3,1.8s0.5,1.2,0.5,2.3c0,0.8-0.1,1.3-0.3,1.7
			c-0.2,0.4-0.5,0.7-1,0.9c-0.5,0.2-1.1,0.4-1.8,0.4s-1.4-0.1-1.9-0.4s-0.9-0.6-1-1.1c-0.2-0.4-0.2-1.1-0.2-1.9v-0.7h2.6v1.3
			c0,0.4,0,0.7,0.1,0.8c0.1,0.1,0.2,0.2,0.4,0.2s0.3-0.1,0.4-0.2c0.1-0.1,0.1-0.4,0.1-0.7c0-0.6-0.1-1-0.3-1.2s-0.6-0.5-1.3-1
			s-1.2-0.8-1.4-1s-0.4-0.5-0.6-0.9c-0.1-0.4-0.2-0.8-0.2-1.4c0-0.8,0.1-1.4,0.3-1.8c0.2-0.4,0.5-0.7,1-0.9s1-0.3,1.7-0.3
			s1.3,0.1,1.9,0.4c0.5,0.2,0.8,0.5,1,0.9s0.2,1,0.2,1.8L52.3,16.2L52.3,16.2z"/>
		<path d="M60.7,13v2.1H59v8.6h-2.8v-8.6h-1.7V13H60.7z"/>
		<path d="M66.6,13v10.7h-2.8V13H66.6z"/>
		<path d="M75.6,13v10.7h-2.4l-1.5-4.9v4.9h-2.3V13h2.3l1.6,4.8V13H75.6z"/>
		<path d="M84.1,13l1.6,10.7h-2.9l-0.1-1.9h-1l-0.2,1.9h-2.9L80,13H84.1z M82.6,19.9c-0.1-1.2-0.3-2.7-0.4-4.5
			c-0.3,2.1-0.5,3.6-0.5,4.5H82.6z"/>
		<path d="M93.5,13v2.1h-1.7v8.6H89v-8.6h-1.7V13H93.5z"/>
		<path d="M99.4,13v10.7h-2.8V13H99.4z"/>
		<path d="M108.5,19.3c0,1.1,0,1.8-0.1,2.3c-0.1,0.4-0.2,0.9-0.5,1.2c-0.3,0.4-0.6,0.7-1.1,0.9s-1,0.3-1.6,0.3s-1.1-0.1-1.5-0.3
			s-0.8-0.5-1.1-0.8c-0.3-0.4-0.4-0.8-0.5-1.2c-0.1-0.4-0.1-1.2-0.1-2.3v-1.8c0-1.1,0-1.8,0.1-2.3c0.1-0.4,0.2-0.9,0.5-1.2
			c0.3-0.4,0.6-0.7,1.1-0.9s1-0.3,1.6-0.3s1.1,0.1,1.5,0.3c0.5,0.2,0.8,0.5,1.1,0.8c0.3,0.4,0.4,0.8,0.5,1.2s0.1,1.2,0.1,2.3V19.3z
			 M105.7,15.7c0-0.5,0-0.8-0.1-1c-0.1-0.1-0.2-0.2-0.3-0.2c-0.1,0-0.3,0.1-0.3,0.2s-0.1,0.4-0.1,1v5c0,0.6,0,1,0.1,1.2
			c0.1,0.1,0.2,0.2,0.4,0.2c0.2,0,0.3-0.1,0.4-0.3c0.1-0.2,0.1-0.6,0.1-1.2v-4.9H105.7z"/>
		<path d="M117.5,13v10.7H115l-1.5-4.9v4.9h-2.3V13h2.3l1.6,4.8V13H117.5z"/>
	</g>
</g>
</svg>
