<svg xmlns="http://www.w3.org/2000/svg" width="13.703" height="13.702" viewBox="0 0 13.703 13.702">
    <path fill="#5e675d" d="M249.493 28.851a4.142 4.142 0 1 1-8.284 0 4.09 4.09 0 0 1 .078-.8H238.5v5.507a2.141 2.141 0 0 0 2.141 2.141h9.42a2.141 2.141 0 0 0 2.142-2.141v-5.503h-2.786a4.161 4.161 0 0 1 .077.8m.567-6.855h-9.42a2.142 2.142 0 0 0-2.141 2.142v2.319h3.469a4.141 4.141 0 0 1 6.765 0h3.466v-2.319A2.142 2.142 0 0 0 250.061 22m1.048 2.645a.383.383 0 0 1-.382.382h-1.147a.384.384 0 0 1-.382-.382V23.5a.384.384 0 0 1 .382-.383h1.146a.383.383 0 0 1 .382.383zm-3.209 4.206a2.549 2.549 0 1 0-2.549 2.549 2.549 2.549 0 0 0 2.549-2.549" transform="translate(-238.5 -22)"/>
</svg>
